<svg width="131" height="130" viewBox="0 0 131 130" fill="none" xmlns="http://www.w3.org/2000/svg">
<rect x="0.5" width="130" height="130" rx="65" fill="white" fill-opacity="0.26"/>
<path d="M87.2917 63.4584H69.0417V45.2084C69.0417 44.4017 68.7212 43.628 68.1508 43.0576C67.5803 42.4871 66.8067 42.1667 66 42.1667C65.1933 42.1667 64.4196 42.4871 63.8492 43.0576C63.2788 43.628 62.9583 44.4017 62.9583 45.2084V63.4584H44.7083C43.9016 63.4584 43.128 63.7788 42.5575 64.3492C41.9871 64.9197 41.6667 65.6933 41.6667 66.5C41.6667 67.3067 41.9871 68.0804 42.5575 68.6508C43.128 69.2212 43.9016 69.5417 44.7083 69.5417H62.9583V87.7917C62.9583 88.5984 63.2788 89.372 63.8492 89.9425C64.4196 90.5129 65.1933 90.8334 66 90.8334C66.8067 90.8334 67.5803 90.5129 68.1508 89.9425C68.7212 89.372 69.0417 88.5984 69.0417 87.7917V69.5417H87.2917C88.0984 69.5417 88.872 69.2212 89.4424 68.6508C90.0129 68.0804 90.3333 67.3067 90.3333 66.5C90.3333 65.6933 90.0129 64.9197 89.4424 64.3492C88.872 63.7788 88.0984 63.4584 87.2917 63.4584Z" fill="white" fill-opacity="0.8"/>
</svg>
